<?xml version="1.0" encoding="UTF-8"?>
<svg version="1.1" xmlns="http://www.w3.org/2000/svg" width="1007" height="133">
<path d="M0 0 C0.81825256 -0.00807175 1.63650513 -0.01614349 2.47955322 -0.02445984 C4.21437489 -0.03826569 5.94922333 -0.04900343 7.68408203 -0.05688477 C9.42537631 -0.06830045 11.16663858 -0.08858284 12.90771484 -0.1184082 C28.04334372 -0.37707515 43.03211233 0.67810238 56.453125 8.42578125 C57.50741699 9.00996826 57.50741699 9.00996826 58.58300781 9.60595703 C64.82152774 13.16612203 70.23147696 17.45070834 75.578125 22.23828125 C100.57313451 44.13742908 129.49356837 61.58797364 163.78515625 61.21875 C175.24585557 61.16303166 186.68398785 61.58698603 198.13647461 61.97879028 C228.61044637 63.010897 259.09278277 63.70966854 289.578125 64.30078125 C290.66853718 64.32198154 291.75894936 64.34318184 292.88240433 64.36502457 C322.29001193 64.93231734 351.69740048 65.3214616 381.109375 65.55078125 C381.83790176 65.55646582 382.56642853 65.5621504 383.31703186 65.56800723 C399.11335781 65.6904966 414.90975446 65.79604397 430.70630264 65.88513124 C436.65317152 65.91894229 442.60002593 65.95506025 448.546875 65.9921875 C449.80101196 65.99998293 451.05514893 66.00777836 452.34729004 66.01581001 C471.76870303 66.14268601 491.17074691 66.47623224 510.578125 67.23828125 C510.60125321 74.91364752 510.61904253 82.58901021 510.62993717 90.26440334 C510.63516495 93.82805547 510.64226069 97.39168382 510.65356445 100.95532227 C510.66646676 105.04834222 510.67135406 109.14133705 510.67578125 113.234375 C510.68094254 114.51976669 510.68610382 115.80515839 510.69142151 117.12950134 C510.69149704 118.31065018 510.69157257 119.49179901 510.69165039 120.70874023 C510.693871 121.75464828 510.69609161 122.80055634 510.69837952 123.87815857 C510.578125 126.23828125 510.578125 126.23828125 509.578125 127.23828125 C507.18036941 127.34219326 504.81115865 127.38034685 502.41264057 127.37694645 C501.26715192 127.38120976 501.26715192 127.38120976 500.09852209 127.3855592 C497.5023011 127.39397353 494.90612439 127.39518022 492.30989075 127.39649963 C490.43780068 127.4010637 488.56571163 127.40606365 486.69362378 127.41146374 C481.50370444 127.42513436 476.31379172 127.43249475 471.123859 127.43889065 C465.50216094 127.44688992 459.88047646 127.46060768 454.25878811 127.47359371 C443.10796569 127.49840867 431.95713978 127.51774191 420.80630388 127.53533938 C411.56085477 127.55006844 402.31541161 127.56696678 393.06996918 127.58540344 C392.07458965 127.58738443 392.07458965 127.58738443 391.05910145 127.58940543 C388.35784148 127.59478384 385.65658153 127.60017059 382.95532161 127.60556992 C355.5929993 127.66021571 328.23066757 127.70770747 300.86832716 127.75225467 C297.09603183 127.75839692 293.3237365 127.7645488 289.55144119 127.77070999 C288.4280083 127.77254436 288.4280083 127.77254436 287.2818798 127.77441579 C271.46363391 127.80029074 255.64539224 127.82839091 239.8271508 127.85683916 C163.00458142 127.99497241 86.18198849 128.11890752 -495.421875 128.23828125 C-495.421875 106.45828125 -495.421875 84.67828125 -495.421875 62.23828125 C-489.96172852 62.24875488 -484.50158203 62.25922852 -478.87597656 62.27001953 C-460.53200206 62.30363899 -442.18802606 62.32554139 -423.84402847 62.34190559 C-412.75700513 62.35206626 -401.67001199 62.36588034 -390.58300781 62.38916016 C-339.89182294 62.4933605 -289.27251335 62.33488034 -238.61463165 60.36198425 C-235.64764941 60.24702885 -232.6805507 60.13646599 -229.71331787 60.02819824 C-219.96767276 59.67163478 -210.22558412 59.26488102 -200.484375 58.80078125 C-199.12999721 58.73723108 -197.77561685 58.67373563 -196.42123413 58.61029053 C-140.5313581 55.97809759 -93.28283582 51.00169875 -46.87792969 17.39599609 C-41.89282366 13.83751739 -36.93186894 10.66452437 -31.421875 7.98828125 C-30.73762451 7.65111084 -30.05337402 7.31394043 -29.34838867 6.96655273 C-24.18671777 4.47972626 -19.02689566 2.49189955 -13.421875 1.23828125 C-12.72698975 1.06844727 -12.03210449 0.89861328 -11.31616211 0.72363281 C-7.54452666 0.09115611 -3.8137366 0.03640047 0 0 Z " fill="#FFFFFF" transform="translate(496.421875,1.76171875)"/>
</svg>
